<?xml version="1.0" encoding="utf-8"?>
<!DOCTYPE svg PUBLIC "-//W3C//DTD SVG 1.1//EN" "http://www.w3.org/Graphics/SVG/1.1/DTD/svg11.dtd">
<svg version="1.1" xmlns="http://www.w3.org/2000/svg" xmlns:xlink="http://www.w3.org/1999/xlink" x="0px" y="0px"
	 width="349.92px" height="504px" viewBox="0 0 349.92 504" enable-background="new 0 0 349.92 504" xml:space="preserve">
<g id="Layer_1" display="none">
	<g display="inline">
		<polygon fill="#E0E0E0" points="251.242,196.921 166.889,168.777 191.825,227.2 235.685,245.042"/>
		<path fill="#C4C4C3" d="M251.105,223.437c-4.224,13.308-10.944,23.056-15.01,21.764c-4.07-1.292-3.941-13.128,0.285-26.438
			c4.221-13.31,10.941-23.053,15.008-21.763L251.105,223.437z"/>
		<path fill="#C4C4C3" d="M251.105,223.437c-4.224,13.308-10.944,23.056-15.01,21.764c-4.07-1.292-3.941-13.128,0.285-26.438
			c4.221-13.31,10.941-23.053,15.008-21.763L251.105,223.437z"/>
		<path fill="#C4C4C3" d="M251.105,223.437c-4.224,13.308-10.944,23.056-15.01,21.764c-4.07-1.292-3.941-13.128,0.285-26.438
			c4.221-13.31,10.941-23.053,15.008-21.763L251.105,223.437z"/>
		<path fill="#F9CCCA" d="M265.306,201.416l-14.016-4.449c0,0-0.04,0-0.11,0.005c-4.086-0.914-10.648,8.701-14.8,21.791
			c-1.121,3.527-1.942,6.941-2.486,10.088c3.545,2.277,7.155,4.368,10.372,6.15c5.982,3.369,10.317,5.372,10.317,5.372
			L265.306,201.416z"/>
	</g>
	<path display="inline" fill="#F9CCCA" d="M279.935,228.054c7.333,13.127-8.174,19.036-25.606,14.039
		c-14.201-4.072-11.337-17.967-7.588-32.425c2.211-8.531,16.091-20.792,23.327-18.334
		C277.301,193.79,273.622,216.753,279.935,228.054z"/>
	<path display="inline" fill="#512E54" d="M306.252,204.17l-18.114-7.698c-7.508-3.187-16.177,0.315-19.364,7.816l-10.268,24.163
		c-3.185,7.505,0.312,16.173,7.816,19.36l18.123,7.702c7.503,3.189,16.172-0.317,19.361-7.822l10.264-24.163
		C317.257,216.027,313.759,207.354,306.252,204.17z M305.899,220.732l-9.779,23.025c-1.594,3.75-5.929,5.503-9.683,3.91
		l-15.85-6.735c-3.755-1.593-5.505-5.93-3.911-9.681l9.781-23.024c1.593-3.755,5.928-5.502,9.679-3.909l15.854,6.737
		C305.748,212.646,307.5,216.98,305.899,220.732z"/>
	<path display="inline" fill="#F9CCCA" d="M280.259,203.913c0.114,0.059,4.87,2.569,4.87,2.569l-15.094,35.493
		c-1.354-0.154-3.644-0.938-4.946-1.388c-2.698-1.432-3.355-4.908-1.703-7.239c0.961-1.326,2.556-2.024,4.26-2.05
		c-0.03-0.019-0.055-0.036-0.085-0.054c0.002-0.005,0.004-0.008,0.007-0.013c-0.093-0.05-0.188-0.103-0.281-0.163
		c-2.711-1.74-3.66-4.976-1.959-7.296c1.205-1.629,3.463-2.309,5.704-1.908c-0.042-0.025-0.093-0.048-0.133-0.075
		c-2.878-1.809-3.918-5.071-2.167-7.371c1.248-1.617,3.596-2.257,5.952-1.814c0.054,0.102-0.304,0.06-0.419,0.007
		c-3.345-1.537-4.903-4.696-3.332-7.162C272.497,202.986,276.748,202.249,280.259,203.913z"/>
	<path display="inline" fill="#F9CCCA" d="M271.402,191.853c-2.685-1.44-5.829,0.388-7.219,3.93c0.002-0.083,0.013-0.168,0.013-0.25
		c0,0-2.955,7.763-2.974,7.797c-1.57,3.806-0.562,8.258,2.127,9.78c2.645,1.507,5.836-0.239,7.314-3.747
		c-0.003,0.084-0.017,0.167-0.019,0.251l3.578-9.555l-0.009-0.004C274.926,196.634,273.774,193.119,271.402,191.853z"/>
	<g display="inline">
		<path fill="#512E54" d="M346.271,215.973c1.166-5.128-10.92-14.066-27.539-20.246c-16.622-6.183-31.621-7.319-34.083-2.67
			l-0.029-0.014l-0.128,0.353c-0.002,0.003-0.005,0.007-0.008,0.012c-0.002,0.004,0,0.009-0.003,0.014l-22.83,61.371l0.035,0.013
			c-0.074,0.132-0.142,0.272-0.194,0.412c-1.882,5.054,10.402,14.292,27.434,20.628c17.033,6.335,32.367,7.369,34.248,2.316
			c0.054-0.142,0.088-0.29,0.123-0.444l0.038,0.021l22.827-61.367c0.001-0.008,0.005-0.013,0.005-0.017
			c0.002-0.005,0.004-0.011,0.005-0.018l0.13-0.35L346.271,215.973z"/>
		<path fill="#38273A" d="M339.978,213.434c-1.29,3.462-13.277,2.19-26.782-2.829c-13.501-5.023-23.404-11.899-22.115-15.361
			c1.283-3.458,13.274-2.19,26.776,2.834C331.359,203.098,341.263,209.973,339.978,213.434z"/>
		<path fill="#846856" d="M313.6,206.714c-3.09-0.03-6.052,0.08-8.815,0.303c2.575,1.249,5.395,2.463,8.411,3.588
			c13.504,5.02,25.492,6.291,26.782,2.829c0.054-0.147,0.058-0.303,0.073-0.46C338.514,209.568,327.268,206.835,313.6,206.714z"/>
	</g>
	<path display="inline" fill="#3F403F" d="M62.441,465.092l31.978,12.626l32.02-11.761c-1.342-1.403-14.36-4.499-32.02-4.499
		C76.757,461.458,64.904,461.853,62.441,465.092z"/>
	<rect x="63.24" y="410.886" display="inline" fill="#F9CCCA" width="62.611" height="73.793"/>
	<path display="inline" fill="#3F403F" d="M126.451,479.823v-13.895c0,0-30.787,16.959-64.079-0.998
		c0,8.477,0.008,23.662,0.008,23.662h0.02c-0.007,0.005-0.013,0.01-0.02,0.013c0,0,27.284,18.468,64.125,9.133
		C153.943,490.789,129.009,481.439,126.451,479.823z"/>
	<path display="inline" fill="#3F403F" d="M152.333,457.713l31.978,12.625l32.02-11.761c-1.342-1.403-14.36-4.498-32.02-4.498
		C166.649,454.079,154.796,454.474,152.333,457.713z"/>
	<polygon display="inline" fill="#EAE8E8" points="257.394,305.134 254.474,371.312 216.209,404.424 168.785,376.165 	"/>
	<rect x="153.132" y="408.873" display="inline" fill="#F9CCCA" width="62.611" height="73.793"/>
	<path display="inline" fill="#F9CCCA" d="M57.209,425.276"/>
	<path display="inline" fill="#C03B2B" d="M228.781,361.952c-1.02,4.078-1.02,6.115-1.02,6.115s-0.458,45.021,1.072,46.551
		c1.529,1.529-2.039,7.137-2.039,7.137s-25.538,32.966-80.588,6.971c0-0.51-1.019-16.311-1.019-16.311l-3.059,0.51l-0.697,15.291
		c0,0-42.893,28.034-90.296,0.51c1.02-20.897-0.645-33.131-0.645-33.131s-18.351-8.156-14.272-24.467L228.781,361.952z"/>
	<path display="inline" fill="#3F403F" d="M216.344,477.811v-19.262c0,0-30.787,16.96-64.079-0.998
		c0,8.477,0.008,29.029,0.008,29.029h0.019c-0.007,0.005-0.013,0.01-0.019,0.014c0,0,27.283,18.467,64.125,9.132
		C243.835,488.777,218.902,479.427,216.344,477.811z"/>
	<path display="inline" fill="none" stroke="#3F403F" stroke-width="27" stroke-miterlimit="10" d="M43.115,137.407"/>
	<g display="inline">
		<path fill="#C03B2B" d="M109.97,497.46c-0.496,0-0.982-0.243-1.272-0.691c-0.454-0.702-0.253-1.639,0.448-2.093
			c7.125-4.608,18.486-9.247,25.529-8.734c0.833,0.059,1.461,0.783,1.401,1.616c-0.06,0.834-0.776,1.471-1.617,1.402
			c-5.5-0.391-15.904,3.234-23.668,8.258C110.536,497.381,110.251,497.46,109.97,497.46z"/>
	</g>
	<g display="inline">
		<path fill="#C03B2B" d="M199.75,495.225c-0.496,0-0.982-0.243-1.272-0.691c-0.454-0.702-0.253-1.639,0.448-2.093
			c7.123-4.607,18.494-9.242,25.527-8.734c0.833,0.059,1.461,0.783,1.401,1.616c-0.059,0.834-0.771,1.464-1.617,1.402
			c-5.5-0.395-15.903,3.234-23.667,8.258C200.316,495.146,200.032,495.225,199.75,495.225z"/>
	</g>
	<polygon display="inline" fill="#F9CCCA" points="129.205,148.586 195.955,157.642 214.402,210.975 138.597,222.379 	"/>
	<path display="inline" fill="#F9CCCA" d="M235.489,267.3L77.833,330.341c0,0-48.326,51.59,70.593,62.87
		c76.542,5.724,96.834-14.861,108.814-54.334C268.035,303.308,235.489,267.3,235.489,267.3z"/>
	<line display="inline" fill="none" x1="57.509" y1="272.956" x2="67.259" y2="157.984"/>
	<path display="inline" fill="#FFFFFF" d="M260.058,337.7c3.315-12.011,8.012-43.541-35.081-79.976
		c-1.182-50.774-36.564-109.645-36.564-109.645c17.749,31.078,21.217,43.541,13.342,57.011
		c-6.922,10.184-28.234,14.988-47.222,8.665c-18.989-6.323-37.181-61.726-43.331-84.465l-22.359,12.346L68.157,378.909
		c0,0,21.696,16.135,50.191,8.056c34.671-9.829,80.748-61.566,139.562-45.64c0.684,0.23,1.306,0.434,1.549,0.497
		c0.659,0.169,1.96-0.62,2.358-1.988C262.04,339.064,261.004,338.259,260.058,337.7z"/>
	<path display="inline" fill="#EAE8E8" d="M107.802,106.235c0,0,20.575,13.807,30.014,50.344
		c9.02,34.915,23.589,78.881,22.332,118.369c-4.749,20.598-25.351,58.792-17.301,104.408l-63.955,28.176l-49.194-34.884
		c0,0,4.892-38.534,8.94-64.842c8.323-26.674-12.61-139.023,2.814-146.243C47.775,155.814,69.948,115.492,107.802,106.235z"/>
	<path display="inline" fill="#EAE8E8" d="M192.042,164.127c0,0,22.869,27.358,28.398,94.478
		c15.144,6.67,16.323,10.846,19.454,13.194c0,0-5.366-11.182-10.062-13.865c1.006-15.43-7.715-69.432-24.15-92.576L192.042,164.127z
		"/>
	<path display="inline" opacity="0.2" d="M225.522,352.894c0.131,1.201-1.893,2.399-4.514,2.679
		c-2.622,0.279-4.849-0.462-4.98-1.664c-0.126-1.198,1.894-2.398,4.517-2.676C223.166,350.952,225.395,351.695,225.522,352.894z"/>
	<polygon display="inline" fill="#DEDDDD" points="192.096,164.072 216.831,175.42 193.035,136.081 	"/>
	<path display="inline" fill="#F9CCCA" d="M244.425,112.281l-10.168,1.99c0.437-2.18,0.754-4.167,0.978-6.819
		c2.901-34.209-23.393-61.688-58.73-64.684c-35.337-2.998-66.337,19.623-69.238,53.833c-2.901,34.21,23.396,64.372,58.732,67.368
		c7.188,0.609,14.19,0.033,20.819-1.537c0.788,0.165,1.588,0.312,2.412,0.422c7.833,1.046,16.081-0.596,23.714-4.229
		C230.062,151.951,243.64,132.576,244.425,112.281z"/>
	<path display="inline" fill="#222222" d="M148.288,76.053L148.288,76.053c-3.581-3.967-10.305-9.282-19.544-9.518
		c0.023-0.021,0.047-0.043,0.068-0.064c-0.889-0.008-1.813,0.047-2.756,0.137c-2.083,0.169-4.276,0.594-6.578,1.349
		c-4.216,1.384-7.249,3.604-9.486,6.28c-0.023,0.026-0.042,0.054-0.066,0.08c-0.33,0.399-0.644,0.808-0.942,1.225
		c-0.066,0.094-0.128,0.191-0.193,0.286c-0.242,0.352-0.476,0.709-0.696,1.073c-0.095,0.16-0.186,0.32-0.278,0.48
		c-0.172,0.303-0.343,0.608-0.503,0.918c-0.115,0.224-0.225,0.451-0.335,0.677c-0.118,0.248-0.234,0.495-0.346,0.746
		c-0.128,0.293-0.254,0.587-0.375,0.885c-0.073,0.182-0.144,0.364-0.215,0.548c-0.141,0.368-0.278,0.741-0.405,1.116
		c-0.033,0.1-0.067,0.201-0.102,0.303c-0.788,2.373-1.335,4.812-1.766,7.175c0.006-0.006,0.013-0.012,0.02-0.018
		c-0.849,4.642,2.722,8.972,1.549,11.882l-0.005-0.005c-0.085,0.215-0.177,0.421-0.271,0.622c-0.027,0.055-0.051,0.11-0.079,0.166
		c-0.077,0.154-0.156,0.301-0.239,0.446c-0.096,0.165-0.195,0.326-0.298,0.477c-0.036,0.051-0.068,0.104-0.103,0.153
		c-0.691,0.938,2.244,4.387,4.568,0.791c-0.005,0.002-0.006,0.005-0.011,0.007c0.81-1.252,1.588-2.564,2.346-3.88
		c-0.289-0.911-0.55-1.83-0.76-2.764c-3.025-13.388,3.046-23.895,13.561-23.467c10.392,0.425,17.739,11.235,20.827,24.414
		c2.054,0.996,8.68-2.707,9.229-4.812C155.395,88.814,152.852,80.971,148.288,76.053z"/>
	<path display="inline" opacity="0.1" d="M235.277,107.262c0,0-0.482,5.681-1.033,6.96c-0.998,0.162-0.983,0.168-0.983,0.168
		l-46.62,6.944C186.641,121.335,212.161,91.633,235.277,107.262z"/>
	<polygon display="inline" fill="#EAE9E0" points="202.176,118.843 201.886,114.805 197.107,115.661 197.678,120.07 	"/>
	<path display="inline" fill="#F9CCCA" d="M58.627,329.097c0.103-0.026,0.21-0.041,0.312-0.059c-0.002-0.003-0.002-0.01-0.005-0.015
		c1.167-0.27,2.341-0.522,3.52-0.765c-5.445-4.655-9.141-8.39-15.23-12.176l21.48-34.654c5.732,3.644,11.264,7.577,16.553,11.827
		c-0.004,0.005-0.005,0.008-0.007,0.012c2.324,1.871,4.606,3.803,6.838,5.788c0.001-0.003,0.004-0.006,0.006-0.006
		c5.506,4.897,10.723,10.128,15.62,15.671c-0.005-0.001-0.012,0.002-0.017,0.006c0.103,0.105,0.203,0.208,0.302,0.315
		c2.881,3.273,3.153,7.58,0.769,9.465c-2.185,1.745-5.718,0.97-8.346-1.507c0.263,0.305,0.529,0.616,0.795,0.923
		c0.825,2.382,0.428,4.771-1.21,6.104c-2.375,1.905-6.239,1.046-8.773-1.791c-0.04-0.045-0.078-0.089-0.112-0.139
		c0.836,2.302,0.43,4.68-1.209,6.076c-2.334,1.953-6.089,1.324-8.509-1.281c-0.085-0.09-0.158-0.181-0.234-0.27
		c-0.002,0.001-0.008,0.007-0.013,0.007c-0.026-0.025-0.05-0.054-0.075-0.078c0.277,1.774-0.224,3.514-1.513,4.682
		c-0.286,0.254-0.591,0.473-0.914,0.651c0.023,0.057,0.046,0.122,0.069,0.181c-0.197,0.008-0.393,0.02-0.585,0.034
		c-1.103,0.46-2.332,0.538-3.534,0.257c-4.364,0.376-8.649,0.946-12.839,1.706c-0.002-0.006-0.002-0.006-0.002-0.015
		c-0.099,0.025-0.199,0.052-0.301,0.072c-3.019,0.538-5.911-1.301-6.706-4.258C53.963,332.909,55.583,329.813,58.627,329.097z"/>
	<path display="inline" fill="#DEDDDD" d="M107.402,105.654c0,0,13.654,33.348,29.844,48.859
		c-7.421,8.123-21.13,24.241-21.13,24.241s-17.784-64.455-17.942-70.528C101.855,104.499,107.402,105.654,107.402,105.654z"/>
	<path display="inline" fill="#222222" d="M153.15,87.527c0,0,0.189-14.123-5.345-20.314c0.493,6.101-0.272,15.125-0.272,15.125
		L153.15,87.527z"/>
	<path display="inline" fill="#222222" d="M147.231,77.936c0,0-5.136-10.871-8.92-13.885c1.97,4.543,3.494,10.396,3.494,10.396
		L147.231,77.936z"/>
	<polygon display="inline" fill="#FFFFFF" points="203.329,118.759 203.261,116.019 200.001,116.447 200.249,119.447 	"/>
	
		<ellipse transform="matrix(0.9964 0.0844 -0.0844 0.9964 8.7862 -16.3426)" display="inline" fill="#303030" cx="197.782" cy="95.8" rx="2.683" ry="5.534"/>
	
		<ellipse transform="matrix(0.9964 0.0846 -0.0846 0.9964 8.967 -16.3749)" display="inline" opacity="0.25" fill="#303030" cx="197.631" cy="97.582" rx="2.683" ry="5.534"/>
	
		<ellipse transform="matrix(0.9964 0.0844 -0.0844 0.9964 8.4322 -18.7522)" display="inline" fill="#303030" cx="225.961" cy="90.335" rx="2.684" ry="5.534"/>
	
		<ellipse transform="matrix(-0.9865 -0.1638 0.1638 -0.9865 119.6857 402.467)" display="inline" fill="#E2D8C7" cx="76.435" cy="196.299" rx="21.64" ry="44.842"/>
	
		<ellipse transform="matrix(0.9964 0.0844 -0.0844 0.9964 8.6009 -18.7306)" display="inline" opacity="0.2" fill="#303030" cx="225.791" cy="92.34" rx="2.684" ry="5.534"/>
	
		<ellipse transform="matrix(0.9817 -0.1903 0.1903 0.9817 -16.1279 43.0266)" display="inline" fill="#C88D8D" cx="215.926" cy="105.472" rx="10.509" ry="5.813"/>
	<path display="inline" fill="#DEDDDD" d="M90.647,155.04c-10.557-12.054-25.613-16.136-33.625-9.119
		c-0.202,0.177-0.369,0.381-0.558,0.569c-7.599,6.08-51.064,43.063-52.404,94.32c-0.526,20.139,5.635,49.936,37.41,78.746
		c0.477,0.618,0.993,1.2,1.6,1.703c7.36,6.101,21.615,1.044,31.842-11.292c9.386-11.321,12.091-24.823,6.787-31.686l0.069-0.08
		c-0.125-0.109-0.24-0.218-0.365-0.327c-0.394-0.464-0.825-0.897-1.299-1.29c-0.194-0.161-0.412-0.282-0.615-0.427
		c-12.185-11.236-18.005-22.276-17.76-33.681c0.473-22.053,22.537-44.374,30.998-51.114l-0.103,0.082l-0.065-0.083
		c0.958-0.49,1.871-1.064,2.693-1.785C103.267,182.558,101.205,167.096,90.647,155.04z"/>
</g>
<g id="Layer_2">
	<g>
		<polygon fill="#E0E0E0" points="251.886,195.289 169.194,167.699 193.639,224.972 236.634,242.461 		"/>
		<path fill="#C4C4C3" d="M251.752,221.283c-4.141,13.045-10.729,22.602-14.714,21.335c-3.989-1.266-3.864-12.869,0.279-25.917
			c4.138-13.048,10.726-22.6,14.713-21.334L251.752,221.283z"/>
		<path fill="#C4C4C3" d="M251.752,221.283c-4.141,13.045-10.729,22.602-14.714,21.335c-3.989-1.266-3.864-12.869,0.279-25.917
			c4.138-13.048,10.726-22.6,14.713-21.334L251.752,221.283z"/>
		<path fill="#C4C4C3" d="M251.752,221.283c-4.141,13.045-10.729,22.602-14.714,21.335c-3.989-1.266-3.864-12.869,0.279-25.917
			c4.138-13.048,10.726-22.6,14.713-21.334L251.752,221.283z"/>
		<path fill="#F9CCCA" d="M265.673,199.696l-13.74-4.362c0,0-0.04,0-0.108,0.005c-4.006-0.895-10.438,8.53-14.509,21.362
			c-1.099,3.458-1.904,6.805-2.437,9.89c3.476,2.232,7.014,4.282,10.167,6.028c5.865,3.304,10.115,5.267,10.115,5.267
			L265.673,199.696z"/>
	</g>
	<path fill="#F9CCCA" d="M280.014,225.809c7.188,12.868-8.013,18.661-25.103,13.762c-13.92-3.992-11.113-17.613-7.438-31.788
		c2.168-8.362,15.774-20.381,22.868-17.972C277.432,192.219,273.825,214.73,280.014,225.809z"/>
	<path fill="#EFEFEF" d="M303.115,204.604l-17.245-7.329c-7.148-3.034-15.4,0.301-18.436,7.441l-9.775,23.005
		c-3.032,7.145,0.297,15.397,7.441,18.431l17.252,7.333c7.145,3.036,15.396-0.302,18.433-7.448l9.772-23.003
		C313.592,215.893,310.261,207.637,303.115,204.604z M302.779,220.373l-9.311,21.92c-1.519,3.57-5.644,5.239-9.219,3.722
		l-15.089-6.412c-3.575-1.516-5.242-5.646-3.724-9.216l9.312-21.921c1.517-3.575,5.644-5.238,9.216-3.721l15.094,6.415
		C302.634,212.673,304.303,216.8,302.779,220.373z"/>
	<path fill="#F9CCCA" d="M280.322,202.235c0.114,0.059,4.866,2.568,4.866,2.568l-15.083,35.469
		c-1.353-0.154-3.642-0.938-4.943-1.388c-2.695-1.43-3.353-4.905-1.703-7.233c0.962-1.325,2.555-2.023,4.258-2.049
		c-0.029-0.018-0.054-0.035-0.085-0.053c0.002-0.006,0.004-0.009,0.007-0.014c-0.093-0.05-0.188-0.104-0.28-0.163
		c-2.708-1.739-3.657-4.973-1.958-7.292c1.205-1.627,3.46-2.307,5.701-1.906c-0.042-0.024-0.094-0.047-0.132-0.075
		c-2.877-1.807-3.915-5.067-2.167-7.367c1.247-1.616,3.594-2.254,5.948-1.812c0.052,0.102-0.304,0.06-0.42,0.006
		c-3.342-1.536-4.898-4.693-3.329-7.156C272.565,201.31,276.813,200.572,280.322,202.235z"/>
	<path fill="#F9CCCA" d="M271.649,190.32c-2.632-1.411-5.714,0.38-7.077,3.853c0.002-0.082,0.013-0.165,0.013-0.246
		c0,0-2.896,7.61-2.916,7.644c-1.539,3.731-0.551,8.096,2.086,9.589c2.593,1.477,5.721-0.235,7.17-3.673
		c-0.002,0.081-0.017,0.164-0.018,0.246l3.508-9.367l-0.009-0.004C275.104,195.007,273.975,191.561,271.649,190.32z"/>
	<g>
		<path fill="#FDFDFE" d="M346.499,214.233c1.182-5.027-10.623-13.891-26.9-20.078c-16.28-6.19-31-7.414-33.452-2.866l-0.028-0.013
			l-0.129,0.346c-0.001,0.004-0.004,0.007-0.008,0.011c-0.001,0.004,0,0.009-0.002,0.014l-22.859,60.106l0.033,0.012
			c-0.073,0.129-0.139,0.266-0.193,0.403c-1.884,4.95,10.114,14.109,26.795,20.452c16.683,6.345,31.732,7.469,33.617,2.521
			c0.054-0.14,0.088-0.285,0.123-0.437l0.039,0.021l22.853-60.103c0.001-0.007,0.006-0.012,0.006-0.016
			c0.002-0.005,0.003-0.01,0.005-0.018l0.131-0.342L346.499,214.233z"/>
		<path fill="#EFEFEF" d="M340.336,211.697c-1.291,3.39-13.054,2.056-26.28-2.971c-13.224-5.028-22.9-11.851-21.608-15.242
			c1.285-3.388,13.05-2.057,26.274,2.973C331.946,201.483,341.624,208.306,340.336,211.697z"/>
		<path fill="#846856" d="M314.48,204.909c-3.034-0.051-5.944,0.035-8.658,0.234c2.519,1.246,5.279,2.458,8.234,3.583
			c13.226,5.027,24.989,6.361,26.28,2.971c0.054-0.146,0.059-0.297,0.076-0.452C338.927,207.89,327.902,205.125,314.48,204.909z"/>
	</g>
	<path fill="#3F403F" d="M66.802,455.549l31.347,12.379l31.39-11.529c-1.315-1.377-14.077-4.411-31.39-4.411
		C80.836,451.987,69.216,452.376,66.802,455.549z"/>
	<rect x="67.584" y="402.411" fill="#F9CCCA" width="61.379" height="72.339"/>
	<path fill="#3F403F" d="M66.743,478.602c0,0,27.734,20.427,63.85,11.277c26.897-6.813,2.767-17.04,2.767-17.04
		S108.799,448.932,66.743,478.602z"/>
	<path fill="#3F403F" d="M129.552,478.573v-22.204c0,0-30.181,16.627-62.817-0.978c0,8.311,0.009,23.196,0.009,23.196
		L129.552,478.573z"/>
	<path fill="#3F403F" d="M154.924,448.315l31.348,12.379l31.389-11.53c-1.315-1.376-14.078-4.41-31.389-4.41
		C168.959,444.754,157.339,445.142,154.924,448.315z"/>
	<polygon fill="#EAE8E8" points="257.916,298.741 255.055,363.616 217.542,396.076 171.052,368.373 	"/>
	<rect x="155.707" y="400.438" fill="#F9CCCA" width="61.379" height="72.339"/>
	<g>
		<path fill="#4E1A1A" d="M302.264,506.384"/>
		<path fill="#F9CCCA" d="M297.996,499.558"/>
	</g>
	<path fill="#F9CCCA" d="M61.673,416.518"/>
	<path fill="#4FBA6E" d="M229.867,354.44c-1,3.998-1,5.997-1,5.997s-0.448,44.133,1.05,45.632c1.5,1.498-1.998,6.995-1.998,6.995
		s-25.035,32.318-79.002,6.835c0-0.499-0.999-15.989-0.999-15.989l-2.999,0.499l-0.683,14.991c0,0-42.048,27.481-88.519,0.499
		c1-20.486-0.632-32.479-0.632-32.479s-17.988-7.995-13.99-23.984L229.867,354.44z"/>
	<path fill="#3F403F" d="M154.866,476.628c0,0,27.734,20.427,63.85,11.278c26.897-6.813,2.767-17.039,2.767-17.039
		S196.922,446.959,154.866,476.628z"/>
	<path fill="#3F403F" d="M217.674,476.6v-27.465c0,0-30.18,16.627-62.816-0.978c0,8.311,0.008,28.457,0.008,28.457L217.674,476.6z"
		/>
	<path fill="none" stroke="#3F403F" stroke-width="27" stroke-miterlimit="10" d="M47.855,134.315"/>
	<path fill="none" stroke="#C03B2B" stroke-width="3" stroke-linecap="round" stroke-miterlimit="10" d="M139.485,479.792
		c-6.138-0.439-16.66,3.507-24.113,8.33"/>
	<path fill="none" stroke="#C03B2B" stroke-width="3" stroke-linecap="round" stroke-miterlimit="10" d="M227.171,477.601
		c-6.143-0.439-16.658,3.507-24.113,8.33"/>
	<polygon fill="#F9CCCA" points="132.251,145.276 197.688,154.153 215.771,206.436 141.458,217.616 	"/>
	<path fill="#F9CCCA" d="M236.443,252.444L81.891,323.451c0,0-47.374,50.576,69.203,61.633c75.036,5.61,90.982-15.884,102.726-54.58
		C264.402,295.635,236.443,252.444,236.443,252.444z"/>
	<line fill="none" x1="61.967" y1="267.196" x2="71.524" y2="154.489"/>
	<path fill="#FFFEF9" d="M256.582,329.351c3.251-11.775,11.8-46.849-30.443-86.293c-1.159-49.775-37.55-91.203-37.55-91.203
		c17.4,30.466,22.503,35.607,14.784,48.813c-6.785,9.984-27.678,14.692-46.292,8.493c-18.614-6.198-36.449-60.51-42.478-82.802
		l-21.918,12.104L72.406,371.063c0,0,21.269,15.817,49.203,7.896c33.989-9.636,75.213-61.668,132.868-46.056
		c0.67,0.227,1.28,0.425,1.52,0.487c0.646,0.166,1.921-0.607,2.311-1.949C258.525,330.688,257.511,329.897,256.582,329.351z"/>
	<path fill="#EAE8E8" d="M111.27,103.757c0,0,20.17,13.536,29.422,49.354c8.842,34.227,23.126,77.329,21.893,116.038
		c-4.655,20.193-24.853,57.634-16.96,102.354l-62.696,27.62l-48.226-34.196c0,0,4.796-37.775,8.766-63.566
		c8.158-26.148-12.361-136.286,2.759-143.363C52.425,152.362,74.161,112.833,111.27,103.757z"/>
	<path fill="#EAE8E8" d="M193.957,160.51c0,0,22.203,18.708,27.624,84.507c13.37,6.796,15.343,10.413,18.851,13.482
		c0,0-6.138-12.276-9.644-14.14c0.986-15.125-7.562-58.858-23.675-81.546L193.957,160.51z"/>
	
		<ellipse transform="matrix(0.9943 -0.1063 0.1063 0.9943 -35.415 25.138)" opacity="0.2" cx="218.073" cy="344.743" rx="4.68" ry="2.141"/>
	<path fill="#E2DED7" d="M52.683,194.51c-3.912,18.696,2.217,35.798,13.684,38.194c11.468,2.399,23.934-10.809,27.845-29.507
		c3.91-18.695-1.992-31.608-13.46-34.008C69.285,166.791,56.594,175.815,52.683,194.51z"/>
	<polygon fill="#DEDDDD" points="193.905,160.456 218.153,171.581 194.824,133.017 	"/>
	<path fill="#F9CCCA" d="M245.203,109.685l-9.968,1.951c0.429-2.137,0.74-4.085,0.959-6.685
		c2.844-33.536-22.932-60.474-57.574-63.411c-34.642-2.938-65.03,19.236-67.874,52.773c-2.844,33.536,22.934,63.104,57.575,66.042
		c7.047,0.597,13.911,0.032,20.409-1.506c0.773,0.161,1.557,0.306,2.365,0.414c7.678,1.024,15.764-0.584,23.248-4.147
		C231.123,148.574,244.433,129.58,245.203,109.685z"/>
	<path fill="#222222" d="M150.959,74.17L150.959,74.17c-3.511-3.889-10.102-9.099-19.161-9.33c0.023-0.021,0.046-0.042,0.067-0.063
		c-0.87-0.009-1.778,0.046-2.703,0.135c-2.041,0.166-4.191,0.582-6.448,1.322c-4.133,1.356-7.105,3.532-9.299,6.156
		c-0.022,0.026-0.041,0.053-0.063,0.078c-0.323,0.392-0.633,0.792-0.924,1.201c-0.065,0.092-0.126,0.187-0.19,0.28
		c-0.237,0.346-0.466,0.696-0.682,1.053c-0.094,0.156-0.183,0.314-0.273,0.471c-0.17,0.297-0.336,0.596-0.493,0.9
		c-0.113,0.219-0.222,0.442-0.329,0.664c-0.116,0.243-0.23,0.486-0.338,0.731c-0.127,0.288-0.25,0.576-0.368,0.868
		c-0.072,0.179-0.143,0.357-0.211,0.537c-0.139,0.362-0.271,0.727-0.397,1.094c-0.033,0.098-0.066,0.197-0.1,0.297
		c-0.773,2.326-1.308,4.717-1.731,7.034c0.005-0.006,0.013-0.012,0.019-0.018c-0.832,4.55,2.669,8.795,1.519,11.648l-0.005-0.005
		c-0.084,0.211-0.174,0.412-0.267,0.609c-0.026,0.054-0.051,0.108-0.078,0.162c-0.075,0.151-0.153,0.295-0.234,0.438
		c-0.095,0.161-0.191,0.319-0.293,0.467c-0.035,0.049-0.066,0.101-0.101,0.149c-0.678,0.919,2.201,4.302,4.479,0.776
		c-0.005,0.002-0.007,0.004-0.011,0.007c0.794-1.228,1.558-2.514,2.3-3.804c-0.284-0.893-0.54-1.794-0.747-2.71
		c-2.965-13.125,2.987-23.424,13.295-23.005c10.187,0.417,17.39,11.014,20.418,23.933c2.012,0.977,8.507-2.654,9.048-4.717
		C157.926,86.679,155.433,78.991,150.959,74.17z"/>
	<path opacity="0.1" d="M236.235,104.764c0,0-0.473,5.57-1.012,6.824c-0.978,0.158-0.963,0.165-0.963,0.165l-45.703,6.808
		C188.557,118.562,213.575,89.443,236.235,104.764z"/>
	<polygon fill="#EAE9E0" points="203.79,116.278 203.502,112.158 198.816,112.998 199.33,116.936 	"/>
	<path fill="#DEDDDD" d="M110.877,103.188c0,0,13.386,32.692,29.257,47.898c-7.275,7.963-20.713,23.763-20.713,23.763
		s-17.435-63.187-17.59-69.14C105.44,102.056,110.877,103.188,110.877,103.188z"/>
	<path fill="#222222" d="M155.727,85.418c0,0,0.184-13.844-5.242-19.914c0.483,5.981-0.267,14.827-0.267,14.827L155.727,85.418z"/>
	<path fill="#222222" d="M149.924,76.016c0,0-5.037-10.657-8.746-13.612c1.933,4.454,3.426,10.191,3.426,10.191L149.924,76.016z"/>
	<polygon fill="#FFFFFF" points="204.92,116.114 204.85,113.349 201.654,113.769 201.92,116.566 	"/>
	
		<ellipse transform="matrix(0.9964 0.0845 -0.0845 0.9964 8.612 -16.5135)" fill="#303030" cx="199.479" cy="93.528" rx="2.63" ry="5.425"/>
	
		<ellipse transform="matrix(0.9964 0.0847 -0.0847 0.9964 8.892 -16.5268)" opacity="0.25" fill="#303030" cx="199.331" cy="96.591" rx="2.63" ry="5.425"/>
	
		<ellipse transform="matrix(0.9964 0.0844 -0.0844 0.9964 8.2566 -18.8623)" fill="#303030" cx="227.103" cy="88.171" rx="2.631" ry="5.425"/>
	
		<ellipse transform="matrix(0.9964 0.0844 -0.0844 0.9964 8.5321 -18.8348)" opacity="0.2" fill="#303030" cx="226.935" cy="91.452" rx="2.631" ry="5.426"/>
	
		<ellipse transform="matrix(0.9817 -0.1903 0.1903 0.9817 -15.6355 43.2392)" fill="#C88D8D" cx="217.265" cy="103.01" rx="10.302" ry="5.699"/>
	<path fill="#F9CCCA" d="M55.956,331.409c0.096-0.024,0.198-0.037,0.294-0.055c-0.002-0.003-0.002-0.011-0.005-0.014
		c1.099-0.255,2.207-0.494,3.317-0.722c-5.133-4.389-8.618-7.91-14.358-11.479l20.25-32.67c5.404,3.435,10.619,7.143,15.605,11.15
		c-0.005,0.003-0.005,0.008-0.007,0.012c2.192,1.763,4.342,3.584,6.447,5.456c0.001-0.002,0.003-0.006,0.006-0.006
		c5.19,4.618,10.109,9.549,14.727,14.775c-0.005-0.001-0.012,0.002-0.016,0.006c0.097,0.099,0.191,0.194,0.285,0.295
		c2.716,3.086,2.972,7.146,0.724,8.923c-2.06,1.646-5.39,0.916-7.868-1.42c0.249,0.288,0.499,0.582,0.75,0.871
		c0.778,2.246,0.403,4.498-1.141,5.754c-2.238,1.797-5.881,0.987-8.271-1.688c-0.038-0.042-0.074-0.084-0.105-0.13
		c0.788,2.168,0.405,4.411-1.14,5.728c-2.2,1.841-5.74,1.249-8.022-1.208c-0.081-0.086-0.149-0.171-0.221-0.254
		c-0.002,0.001-0.008,0.007-0.013,0.007c-0.024-0.025-0.047-0.052-0.07-0.075c0.261,1.673-0.211,3.314-1.427,4.415
		c-0.27,0.24-0.557,0.446-0.862,0.614c0.022,0.054,0.044,0.115,0.065,0.172c-0.186,0.006-0.37,0.018-0.552,0.031
		c-1.04,0.434-2.198,0.507-3.331,0.243c-4.115,0.355-8.154,0.892-12.105,1.608c-0.001-0.006-0.001-0.006-0.001-0.014
		c-0.094,0.023-0.188,0.049-0.285,0.067c-2.846,0.508-5.572-1.227-6.321-4.014C51.559,335.003,53.085,332.084,55.956,331.409z"/>
	<path fill="#DEDDDD" d="M86.143,167.315c-9.953-11.363-24.147-15.211-31.7-8.597c-0.191,0.166-0.348,0.36-0.526,0.537c-7.165,5.731-48.141,40.598-49.404,88.921c-0.497,18.986,5.312,47.076,35.268,74.237c0.45,0.583,0.937,1.132,1.509,1.605c6.938,5.752,20.378,0.984,30.019-10.646c8.849-10.674,11.399-23.402,6.398-29.872l0.065-0.075c-0.118-0.104-0.226-0.207-0.344-0.31c-0.372-0.437-0.778-0.845-1.225-1.215c-0.183-0.153-0.388-0.267-0.579-0.403c-11.487-10.594-16.974-21.002-16.744-31.754c0.445-20.791,21.247-41.833,29.224-48.188l-0.098,0.077l-0.061-0.078c0.904-0.461,1.764-1.003,2.539-1.683C98.04,193.258,96.096,178.682,86.143,167.315z"/>
</g>
</svg>
